<svg xmlns="http://www.w3.org/2000/svg" viewBox="0 0 512 512"><path fill="#ff52a0" d="M478.585 105.748V72.359h-33.39v-33.39H311.637v33.39h-33.39v33.389h-44.519V72.359h-33.389v-33.39H66.78v33.39H33.391v33.389H.001v200.337h33.39v33.39H66.78v33.39h33.39v33.389h66.779v33.39h66.779v33.389h44.519v-33.389h66.78v-33.39h66.779v-33.389h33.389v-33.39h33.39v-33.376H512V105.761z"/><path d="M311.637 38.969v33.39h-33.39v33.389h-44.519v33.39h77.909v-33.39h33.39V38.969zM66.78 72.359H33.391v33.389H.001v33.39H66.78v-33.39h33.39V38.969H66.78z" fill="#fff"/><path d="M33.39 72.356h33.39v33.39H33.39zm411.804 0h33.39v33.39h-33.39zm-166.948 0h33.39v33.39h-33.39zM33.39 306.083h33.39v33.39H33.39zm411.804 0h33.39v33.39h-33.39zM166.948 406.252h66.779v33.39h-66.779zm111.298 0h66.779v33.39h-66.779zM200.337 72.356h33.39v33.39h-33.39zm33.39 33.39h44.519v33.39h-44.519zm111.299 267.116h66.779v33.39h-66.779zm-244.857 0h66.779v33.39h-66.779z"/><path d="M66.779 339.473h33.39v33.39h-33.39zm345.026 0h33.39v33.39h-33.39zM233.727 439.642h44.519v33.39h-44.519zM66.779 38.967h133.558v33.39H66.779zm244.857 0h133.558v33.39H311.636zM0 105.746h33.39v200.337H0zm478.584 0h33.39v200.337h-33.39z"/></svg>