<?xml version="1.0"?>
<svg xmlns="http://www.w3.org/2000/svg" xmlns:xlink="http://www.w3.org/1999/xlink" xmlns:svgjs="http://svgjs.com/svgjs" version="1.1" width="512" height="512" x="0" y="0" viewBox="0 0 512 512" style="enable-background:new 0 0 512 512" xml:space="preserve"><g><g xmlns="http://www.w3.org/2000/svg"><path d="m0 272.855c122.96 67.261 87.994 48.137 154.591 84.554 35.967 65.773 17.657 32.297 84.554 154.591 0-11.648 0-227.082 0-239.145-12.063 0-227.494 0-239.145 0z" fill="#ffffff" data-original="#000000" style=""/><path d="m512 239.145c-122.96-67.261-87.994-48.137-154.591-84.554-35.967-65.773-17.657-32.297-84.554-154.591v239.145z" fill="#ffffff" data-original="#000000" style=""/><path d="m129.758 129.759 20.136-36.811-80.542-23.597 23.596 80.543z" fill="#ffffff" data-original="#000000" style=""/><path d="m92.948 362.106-23.596 80.543 80.542-23.597-20.136-36.811z" fill="#ffffff" data-original="#000000" style=""/><path d="m154.591 154.591c-65.773 35.967-32.297 17.657-154.591 84.554h239.145c0-12.063 0-227.494 0-239.145-67.261 122.96-48.137 87.994-84.554 154.591z" fill="#ffffff" data-original="#000000" style=""/><path d="m272.855 272.855v239.145c67.271-122.978 48.134-87.988 84.554-154.591 65.773-35.967 32.297-17.657 154.591-84.554-11.651 0-227.082 0-239.145 0z" fill="#ffffff" data-original="#000000" style=""/><path d="m419.052 149.894 23.596-80.543-80.542 23.597 20.136 36.811z" fill="#ffffff" data-original="#000000" style=""/><path d="m382.242 382.241-20.136 36.811 80.542 23.597-23.596-80.543z" fill="#ffffff" data-original="#000000" style=""/></g></g></svg>
