<svg xmlns="http://www.w3.org/2000/svg" width="512" height="512" viewBox="0 0 74.999 74.999"><path d="M33.511 3.987c15.487 0 28.551 10.563 32.375 24.859h9.113L61.055 53 47.111 28.849h8.006c-3.44-8.563-11.826-14.628-21.605-14.628-12.837 0-23.28 10.443-23.28 23.28 0 12.836 10.443 23.28 23.28 23.28 6.604 0 12.566-2.768 16.809-7.196l5.258 9.108c-5.898 5.176-13.619 8.32-22.065 8.32C15.034 71.013 0 55.981 0 37.5-.002 19.019 15.03 3.987 33.511 3.987z" fill="#fff" data-original="#000000" xmlns="http://www.w3.org/2000/svg"/></svg>